<?xml version="1.0" encoding="UTF-8"?>
<svg width="48px" height="60px" viewBox="0 0 48 60" xmlns="http://www.w3.org/2000/svg" xmlns:xlink="http://www.w3.org/1999/xlink" version="1.1">
 <!-- Generated by Pixelmator Pro 2.3 -->
 <path id="Path" d="M42.85 15.12 C42.28 14.41 41.43 14 40.51 14 L11.09 14 10.25 8.54 C10.02 7.07 8.78 6 7.29 6 L4.01 6 4.01 8 7.29 8 C7.79 8 8.2 8.36 8.28 8.85 L11.76 31.46 C11.99 32.93 13.23 34 14.72 34 L37.4 34 C38.82 34 40.02 33.03 40.33 31.65 L43.44 17.65 C43.64 16.76 43.42 15.84 42.85 15.12 Z M38.37 31.21 C38.27 31.67 37.87 31.99 37.39 31.99 L14.72 31.99 C14.22 31.99 13.81 31.63 13.73 31.14 L11.4 15.99 40.51 15.99 C40.81 15.99 41.1 16.13 41.29 16.36 41.48 16.6 41.55 16.9 41.49 17.2 L38.38 31.2 Z" fill="#ffffff" fill-opacity="1" stroke="none"/>
 <path id="Path-1" d="M36 36 C33.79 36 32 37.79 32 40 32 42.21 33.79 44 36 44 38.21 44 40 42.21 40 40 40 37.79 38.21 36 36 36 Z M36 42 C34.9 42 34 41.1 34 40 34 38.9 34.9 38 36 38 37.1 38 38 38.9 38 40 38 41.1 37.1 42 36 42 Z" fill="#ffffff" fill-opacity="1" stroke="none"/>
 <path id="Path-2" d="M16 36 C13.79 36 12 37.79 12 40 12 42.21 13.79 44 16 44 18.21 44 20 42.21 20 40 20 37.79 18.21 36 16 36 Z M16 42 C14.9 42 14 41.1 14 40 14 38.9 14.9 38 16 38 17.1 38 18 38.9 18 40 18 41.1 17.1 42 16 42 Z" fill="#ffffff" fill-opacity="1" stroke="none"/>
 <path id="Path-3" d="M21 21.59 L19.71 20.3 18.3 21.71 20.3 23.71 C20.5 23.91 20.75 24 21.01 24 21.27 24 21.52 23.9 21.72 23.71 L24.72 20.71 23.31 19.3 21.02 21.59 Z" fill="#ffffff" fill-opacity="1" stroke="none"/>
 <path id="Path-4" d="M21 27.59 L19.71 26.3 18.3 27.71 20.3 29.71 C20.5 29.91 20.75 30 21.01 30 21.27 30 21.52 29.9 21.72 29.71 L24.72 26.71 23.31 25.3 21.02 27.59 Z" fill="#ffffff" fill-opacity="1" stroke="none"/>
 <path id="Path-5" d="M27 20 L33 20 33 22 27 22 Z" fill="#ffffff" fill-opacity="1" stroke="none"/>
 <path id="Path-6" d="M27 26 L33 26 33 28 27 28 Z" fill="#ffffff" fill-opacity="1" stroke="none"/>
 <defs>
  <text id="string" transform="matrix(1.0 0.0 0.0 1.0 -1.0 59.0)" font-size="5" y="4.0" text-decoration="none" x="1.0" font-family="Helvetica, Helvetica">Created by Cannavale</text>
 </defs>
 <use id="Created-by-Cannavale" xlink:href="#string" fill="#000000" fill-opacity="1" stroke="none"/>
</svg>
