<svg width="35" height="36" viewBox="0 0 35 36" fill="none" xmlns="http://www.w3.org/2000/svg">
<g clip-path="url(#clip0_2_4)">
<path d="M14.44 17.168C12.592 17.168 12.208 15.824 11.152 13.328C9.76 10.016 9.568 8.336 6.688 8.336H5.152V13.952C5.152 15.92 5.368 16.472 6.112 16.688V17H2.224V16.688C2.968 16.472 3.184 15.92 3.184 13.952V3.248C3.184 1.28 2.968 0.727999 2.224 0.511999V0.199999H6.952C11.824 0.199999 13.264 1.808 13.264 3.944C13.264 6.2 11.632 7.904 8.512 8.264C11.464 8.648 11.92 10.112 13.072 13.064C14.224 15.944 14.704 16.736 15.52 16.736C15.664 16.736 15.784 16.736 15.904 16.712V17C15.544 17.12 14.92 17.168 14.44 17.168ZM5.152 7.976H7.168C9.928 7.976 11.224 6.536 11.224 4.496C11.224 2.36 9.832 0.559999 6.28 0.559999C5.92 0.559999 5.536 0.584 5.152 0.607999V7.976Z" fill="white"/>
<path d="M26.176 35V34.688C26.92 34.472 26.584 34.064 25.576 32.384L22.312 27.008L18.688 32.456C17.752 33.872 17.68 34.52 18.64 34.688V35H15.904V34.688C16.552 34.472 17.152 34.088 18.232 32.456L22.096 26.648L18.568 20.816C17.56 19.136 17.008 18.728 16.48 18.512V18.2H20.2V18.512C19.456 18.728 19.792 19.136 20.824 20.816L23.488 25.256L26.488 20.744C27.424 19.328 27.496 18.68 26.536 18.512V18.2H29.296V18.512C28.624 18.728 28.024 19.112 26.944 20.744L23.728 25.616L27.808 32.384C28.816 34.064 29.368 34.472 29.896 34.688V35H26.176Z" fill="white"/>
<g clip-path="url(#clip1_2_4)">
<path d="M17.4 2.0175C17.2075 2.0175 17.1675 1.8775 17.0575 1.6175C16.9125 1.2725 16.8925 1.0975 16.5925 1.0975H16.4325V1.6825C16.4325 1.8875 16.455 1.945 16.5325 1.9675V2H16.1275V1.9675C16.205 1.945 16.2275 1.8875 16.2275 1.6825V0.5675C16.2275 0.3625 16.205 0.305 16.1275 0.2825V0.25H16.62C17.1275 0.25 17.2775 0.4175 17.2775 0.64C17.2775 0.875 17.1075 1.0525 16.7825 1.09C17.09 1.13 17.1375 1.2825 17.2575 1.59C17.3775 1.89 17.4275 1.9725 17.5125 1.9725C17.5275 1.9725 17.54 1.9725 17.5525 1.97V2C17.515 2.0125 17.45 2.0175 17.4 2.0175ZM16.4325 1.06H16.6425C16.93 1.06 17.065 0.91 17.065 0.6975C17.065 0.475 16.92 0.2875 16.55 0.2875C16.5125 0.2875 16.4725 0.29 16.4325 0.2925V1.06ZM16.1275 5V4.9675C16.2025 4.945 16.2275 4.8875 16.2275 4.6825V3.5675C16.2275 3.3625 16.2025 3.305 16.1275 3.2825V3.25H17.29L17.3175 3.575L17.29 3.5825C17.2025 3.3625 17.055 3.2875 16.8 3.2875H16.4325V4.045H16.7525C17.0375 4.045 17.11 3.9875 17.14 3.875H17.17V4.2525H17.14C17.11 4.14 17.0375 4.0825 16.7525 4.0825H16.4325V4.85C16.4325 4.9225 16.4725 4.9625 16.545 4.9625H16.87C17.11 4.9625 17.2625 4.895 17.3525 4.6625L17.38 4.6675L17.36 5H16.1275ZM15.9575 8V7.9675C16.0275 7.945 16.09 7.895 16.1675 7.705L16.66 6.485C16.6775 6.44 16.675 6.4075 16.655 6.3675L16.6325 6.315L16.82 6.23L17.435 7.7075C17.5125 7.895 17.5725 7.945 17.625 7.9675V8H17.2375V7.9675C17.315 7.945 17.295 7.895 17.215 7.7075L17.0625 7.34H16.3575L16.21 7.705C16.145 7.8675 16.155 7.95 16.24 7.9675V8H15.9575ZM16.3725 7.3025H17.0475L16.705 6.48L16.3725 7.3025ZM16.1275 11V10.9675C16.2025 10.945 16.2275 10.8875 16.2275 10.6825V9.5675C16.2275 9.3625 16.2025 9.305 16.1275 9.2825V9.25H16.5325V9.2825C16.455 9.305 16.4325 9.3625 16.4325 9.5675V10.8475C16.4325 10.92 16.4725 10.96 16.545 10.96H16.8425C17.0825 10.96 17.1925 10.9 17.28 10.7125L17.3075 10.7175L17.29 11H16.1275Z" fill="white"/>
<path d="M17.146 20.025C16.571 20.025 16.2035 19.705 16.2035 19.16C16.2035 18.6275 16.616 18.2325 17.2035 18.2325C17.4185 18.2325 17.6685 18.295 17.766 18.3575L17.776 18.655L17.751 18.66C17.6535 18.4325 17.416 18.28 17.1185 18.28C16.721 18.28 16.4135 18.545 16.4135 19.055C16.411 19.525 16.696 19.975 17.216 19.975C17.486 19.975 17.696 19.8325 17.7935 19.5625L17.821 19.565L17.781 19.89C17.6635 19.955 17.426 20.025 17.146 20.025ZM17.0032 23.025C16.5782 23.025 16.1132 22.7425 16.1132 22.1225C16.1132 21.61 16.4732 21.23 17.0032 21.23C17.4257 21.23 17.8882 21.52 17.8882 22.1325C17.8882 22.75 17.4232 23.025 17.0032 23.025ZM16.3132 21.9775C16.3307 22.48 16.6607 22.9625 17.1082 22.9625C17.5082 22.9625 17.7057 22.6725 17.6932 22.2975C17.6757 21.775 17.3482 21.2875 16.9007 21.2875C16.5207 21.2875 16.2982 21.57 16.3132 21.9775ZM16.4293 26V25.9675C16.5043 25.945 16.5293 25.8875 16.5293 25.6825V24.5675C16.5293 24.3625 16.5043 24.305 16.4293 24.2825V24.25H17.6068L17.6293 24.5125L17.6018 24.52C17.5168 24.3525 17.4118 24.29 17.1768 24.29H16.7343V25.0225H17.0318C17.3168 25.025 17.3868 24.965 17.4193 24.855H17.4493V25.235H17.4193C17.3868 25.1225 17.3168 25.0625 17.0318 25.0625H16.7343V25.6825C16.7343 25.8875 16.7568 25.945 16.8343 25.9675V26H16.4293ZM16.4293 29V28.9675C16.5043 28.945 16.5293 28.8875 16.5293 28.6825V27.5675C16.5293 27.3625 16.5043 27.305 16.4293 27.2825V27.25H17.6068L17.6293 27.5125L17.6018 27.52C17.5168 27.3525 17.4118 27.29 17.1768 27.29H16.7343V28.0225H17.0318C17.3168 28.025 17.3868 27.965 17.4193 27.855H17.4493V28.235H17.4193C17.3868 28.1225 17.3168 28.0625 17.0318 28.0625H16.7343V28.6825C16.7343 28.8875 16.7568 28.945 16.8343 28.9675V29H16.4293ZM16.3914 32V31.9675C16.4664 31.945 16.4914 31.8875 16.4914 31.6825V30.5675C16.4914 30.3625 16.4664 30.305 16.3914 30.2825V30.25H17.5539L17.5814 30.575L17.5539 30.5825C17.4664 30.3625 17.3189 30.2875 17.0639 30.2875H16.6964V31.045H17.0164C17.3014 31.045 17.3739 30.9875 17.4039 30.875H17.4339V31.2525H17.4039C17.3739 31.14 17.3014 31.0825 17.0164 31.0825H16.6964V31.85C16.6964 31.9225 16.7364 31.9625 16.8089 31.9625H17.1339C17.3739 31.9625 17.5264 31.895 17.6164 31.6625L17.6439 31.6675L17.6239 32H16.3914ZM16.3914 35V34.9675C16.4664 34.945 16.4914 34.8875 16.4914 34.6825V33.5675C16.4914 33.3625 16.4664 33.305 16.3914 33.2825V33.25H17.5539L17.5814 33.575L17.5539 33.5825C17.4664 33.3625 17.3189 33.2875 17.0639 33.2875H16.6964V34.045H17.0164C17.3014 34.045 17.3739 33.9875 17.4039 33.875H17.4339V34.2525H17.4039C17.3739 34.14 17.3014 34.0825 17.0164 34.0825H16.6964V34.85C16.6964 34.9225 16.7364 34.9625 16.8089 34.9625H17.1339C17.3739 34.9625 17.5264 34.895 17.6164 34.6625L17.6439 34.6675L17.6239 35H16.3914Z" fill="white"/>
<path d="M17.3434 16V15.9675C17.4209 15.945 17.3859 15.9025 17.2809 15.7275L16.9409 15.1675L16.5634 15.735C16.4659 15.8825 16.4584 15.95 16.5584 15.9675V16H16.2734V15.9675C16.3409 15.945 16.4034 15.905 16.5159 15.735L16.9184 15.13L16.5509 14.5225C16.4459 14.3475 16.3884 14.305 16.3334 14.2825V14.25H16.7209V14.2825C16.6434 14.305 16.6784 14.3475 16.7859 14.5225L17.0634 14.985L17.3759 14.515C17.4734 14.3675 17.4809 14.3 17.3809 14.2825V14.25H17.6684V14.2825C17.5984 14.305 17.5359 14.345 17.4234 14.515L17.0884 15.0225L17.5134 15.7275C17.6184 15.9025 17.6759 15.945 17.7309 15.9675V16H17.3434Z" fill="white"/>
</g>
<g clip-path="url(#clip2_2_4)">
<path d="M7.25533 22C4.48937 24.9193 11.1277 26.1136 9.32979 27.9713C13.2021 25.5828 5.73405 24.9193 7.25533 22ZM6.56384 22.6635C4.48937 25.3174 10.7128 26.2462 8.9149 27.9713C11.4043 26.2462 4.76596 25.3174 6.56384 22.6635ZM8.58644 28.1662C7.00116 28.1662 5.43036 28.3663 3.89728 28.7675C3.84 28.7836 3.79734 28.8387 3.79788 28.896C3.79788 28.9929 3.80452 29.088 3.81084 29.1821C3.59722 29.207 3.34352 29.1573 3.09342 29.0868C2.80573 29.0056 2.53014 28.896 2.2766 28.896C2.2106 28.8931 2.17889 28.9507 2.14694 28.9789C1.96338 29.4017 1.9628 29.7743 2.10372 30.0861C2.24464 30.3979 2.51435 30.6419 2.83843 30.8491C3.38637 31.1995 4.10427 31.4532 4.72274 31.7199C4.35684 31.7674 3.87408 31.861 3.40891 32.0061C3.05494 32.1164 2.71505 32.256 2.45379 32.4373C2.19253 32.6186 2 32.8532 2 33.1423C2 33.5344 2.27963 33.8515 2.69581 34.0877C3.11199 34.324 3.67888 34.5007 4.32081 34.6351C5.60468 34.9039 7.20031 35 8.5 35C10.1653 35 11.7607 34.9007 12.9558 34.6309C13.5533 34.496 14.0518 34.323 14.4122 34.0836C14.7727 33.8441 15 33.5227 15 33.1423C15 32.8806 14.8141 32.6651 14.5678 32.4912C14.3215 32.3173 14.0005 32.1746 13.6646 32.0558C13.2072 31.8941 12.7359 31.7807 12.3767 31.7241C13.0513 31.0005 13.4787 30.0409 13.4787 28.896C13.4787 28.8377 13.4339 28.782 13.375 28.7675C11.7737 28.3666 10.1717 28.1662 8.58644 28.1662ZM2.376 29.1863C2.54122 29.2063 2.756 29.2664 3.01563 29.3397C3.27554 29.4131 3.55718 29.4812 3.83678 29.4475C3.9361 30.1997 4.23646 30.8567 4.66656 31.4048C4.08111 31.158 3.45386 30.9234 2.99402 30.6293C2.695 30.4381 2.46903 30.2266 2.35872 29.9825C2.25991 29.7638 2.26194 29.5043 2.376 29.1863ZM4.10041 29.1988C7.04467 29.8128 10.1106 29.814 13.1805 29.1988C13.0638 30.3596 12.5343 31.2779 11.7803 31.9149C10.9258 32.6222 9.7813 33.0096 8.6383 33.0096C7.5665 33.0096 6.41637 32.6232 5.54389 31.9149C4.74154 31.2635 4.18576 30.3435 4.10041 29.1988ZM7.75233 30.4013C7.44657 30.6947 7.59588 31.321 8.08511 31.7905C8.57435 32.2599 9.21851 32.399 9.52428 32.1056C9.83004 31.8122 9.68505 31.19 9.19582 30.7206C8.7766 30.3596 8.15508 30.0268 7.75233 30.4013ZM9.04023 30.8699C9.34233 31.1597 9.46634 31.5276 9.36005 31.7614L8.11104 30.563C8.45077 30.4573 8.84011 30.6823 9.04023 30.8699ZM7.91656 30.7496L9.16124 31.9439C8.9175 32.044 8.54171 31.93 8.2407 31.6412C7.93881 31.3515 7.81169 30.9844 7.91656 30.7496Z" fill="white"/>
</g>
</g>
<defs>
<clipPath id="clip0_2_4">
<rect width="35" height="36" fill="white"/>
</clipPath>
<clipPath id="clip1_2_4">
<rect width="5" height="36" fill="white" transform="translate(14)"/>
</clipPath>
<clipPath id="clip2_2_4">
<rect width="100" height="125" fill="white" transform="translate(-2 -51)"/>
</clipPath>
</defs>
</svg>
